/* XPM */
static char * acid3_xpm[] = {
"50 50 826 2",
"  	c #6ADB3C",
". 	c #6FD93C",
"+ 	c #76D73B",
"@ 	c #7CD43A",
"# 	c #7BD53B",
"$ 	c #77D63B",
"% 	c #75D73B",
"& 	c #7ED43A",
"* 	c #85D13A",
"= 	c #86D03A",
"- 	c #81D23A",
"; 	c #7FD33A",
"> 	c #80D23A",
", 	c #82D23A",
"' 	c #84D13A",
") 	c #88CF39",
"! 	c #8ECC39",
"~ 	c #91CA38",
"{ 	c #97CD3D",
"] 	c #A7D347",
"^ 	c #ADD349",
"/ 	c #A6CE43",
"( 	c #9CC83A",
"_ 	c #9EC538",
": 	c #9FC236",
"< 	c #9DC437",
"[ 	c #9AC637",
"} 	c #98C738",
"| 	c #97C738",
"1 	c #98C737",
"2 	c #99C637",
"3 	c #9CC437",
"4 	c #9DC337",
"5 	c #9AC537",
"6 	c #94C938",
"7 	c #8FCB39",
"8 	c #6DDA3C",
"9 	c #72D83B",
"0 	c #7AD53B",
"a 	c #78D63B",
"b 	c #7DD43A",
"c 	c #85D03A",
"d 	c #87D13A",
"e 	c #85D43D",
"f 	c #80D53B",
"g 	c #81D43B",
"h 	c #83D33B",
"i 	c #88CE38",
"j 	c #8CCD39",
"k 	c #8FCC39",
"l 	c #91CB38",
"m 	c #95C838",
"n 	c #9BC437",
"o 	c #9BC537",
"p 	c #9EC337",
"q 	c #9FC237",
"r 	c #6ADA3C",
"s 	c #6BDB3C",
"t 	c #73D83B",
"u 	c #74D83B",
"v 	c #74D73B",
"w 	c #8FD642",
"x 	c #9FDE4D",
"y 	c #A8E755",
"z 	c #AAEA58",
"A 	c #A3E352",
"B 	c #96D946",
"C 	c #8CD23D",
"D 	c #8BCF3A",
"E 	c #93C938",
"F 	c #96C838",
"G 	c #6CD93C",
"H 	c #6CDA3C",
"I 	c #70D93C",
"J 	c #79D53B",
"K 	c #84D941",
"L 	c #9CE14E",
"M 	c #B1E959",
"N 	c #BAF060",
"O 	c #BCF362",
"P 	c #B6EB5B",
"Q 	c #A2DD4D",
"R 	c #91D23F",
"S 	c #8DCE3A",
"T 	c #A0C236",
"U 	c #6EDA3C",
"V 	c #8CDC45",
"W 	c #AAE957",
"X 	c #BAF160",
"Y 	c #BFF363",
"Z 	c #BFF464",
"` 	c #AEE656",
" .	c #9BD847",
"..	c #8FCF3C",
"+.	c #92CA38",
"@.	c #A4BF36",
"#.	c #A7BD35",
"$.	c #A2C036",
"%.	c #89D841",
"&.	c #9CE14D",
"*.	c #A9E856",
"=.	c #AEEB5A",
"-.	c #A9E756",
";.	c #9CDF4C",
">.	c #93D442",
",.	c #91CE3B",
"'.	c #90CB38",
").	c #A9BC35",
"!.	c #AABA35",
"~.	c #A9BB35",
"{.	c #99C839",
"].	c #9CCB3D",
"^.	c #9EC83C",
"/.	c #9EC438",
"(.	c #9FC338",
"_.	c #80D33A",
":.	c #84D33C",
"<.	c #89D43F",
"[.	c #8AD641",
"}.	c #8CD641",
"|.	c #8BD53F",
"1.	c #89D23C",
"2.	c #8CCD3A",
"3.	c #93CA38",
"4.	c #A6BE36",
"5.	c #A8BC35",
"6.	c #A0CC3E",
"7.	c #AFD44B",
"8.	c #B6D24C",
"9.	c #B2CC45",
"0.	c #A8C73E",
"a.	c #A1C338",
"b.	c #A0C136",
"c.	c #71D83B",
"d.	c #71D93B",
"e.	c #89CF39",
"f.	c #86D039",
"g.	c #87D039",
"h.	c #8BCD39",
"i.	c #A7BD36",
"j.	c #A0C237",
"k.	c #9AC738",
"l.	c #A8CF45",
"m.	c #BBDC53",
"n.	c #C8DE59",
"o.	c #C7D956",
"p.	c #BDD44F",
"q.	c #ACCB42",
"r.	c #9FC438",
"s.	c #98C637",
"t.	c #8DCD39",
"u.	c #89CE39",
"v.	c #8BCE39",
"w.	c #A7C037",
"x.	c #A8C23A",
"y.	c #A3C33A",
"z.	c #9DC438",
"A.	c #A5CF43",
"B.	c #BBD751",
"C.	c #CADC59",
"D.	c #CEDE5B",
"E.	c #CBDE5A",
"F.	c #BDD953",
"G.	c #A7CE43",
"H.	c #9CC639",
"I.	c #A1C136",
"J.	c #7CD53B",
"K.	c #83D13A",
"L.	c #8ACE39",
"M.	c #8DCC39",
"N.	c #A3BF36",
"O.	c #A8BE37",
"P.	c #A8C03A",
"Q.	c #A9C43D",
"R.	c #A8C43D",
"S.	c #A6C239",
"T.	c #9AC839",
"U.	c #A8CC42",
"V.	c #BCD550",
"W.	c #C9DB58",
"X.	c #CCDE5B",
"Y.	c #C5DF59",
"Z.	c #B2D64C",
"`.	c #A0C93C",
" +	c #A5BE36",
".+	c #79D63B",
"++	c #8ECC3A",
"@+	c #A4C037",
"#+	c #A8C038",
"$+	c #AAC23C",
"%+	c #ABC53E",
"&+	c #AAC53E",
"*+	c #A8C23B",
"=+	c #A6C83E",
"-+	c #B8CC49",
";+	c #C1D350",
">+	c #BED752",
",+	c #B0D249",
"'+	c #A1C83D",
")+	c #87CF39",
"!+	c #96C738",
"~+	c #A3C138",
"{+	c #A7C43B",
"]+	c #A8C63E",
"^+	c #ABC53D",
"/+	c #ABC03A",
"(+	c #A7BF37",
"_+	c #ABC63E",
":+	c #ABC941",
"<+	c #A4CA3F",
"[+	c #A1C53A",
"}+	c #A5BE37",
"|+	c #A1C137",
"1+	c #A3C339",
"2+	c #A6C139",
"3+	c #A3C137",
"4+	c #A3C036",
"5+	c #A2C137",
"6+	c #A4C138",
"7+	c #A2C237",
"8+	c #7DD63C",
"9+	c #9EC338",
"0+	c #A6C43B",
"a+	c #A7C43C",
"b+	c #A5C239",
"c+	c #A5BF38",
"d+	c #A6C138",
"e+	c #89DA43",
"f+	c #80D63D",
"g+	c #85D13B",
"h+	c #A0C438",
"i+	c #A4C63C",
"j+	c #A7C73D",
"k+	c #A7C53D",
"l+	c #A7C23A",
"m+	c #A9C23B",
"n+	c #ADC43F",
"o+	c #AEC741",
"p+	c #AAC941",
"q+	c #A5C93F",
"r+	c #A3C53B",
"s+	c #9BE34F",
"t+	c #8DDC46",
"u+	c #80D83F",
"v+	c #7BD63C",
"w+	c #83D53D",
"x+	c #8FD741",
"y+	c #90D742",
"z+	c #90D642",
"A+	c #8ED540",
"B+	c #8FD33F",
"C+	c #93CE3C",
"D+	c #97C939",
"E+	c #9FC437",
"F+	c #A1C439",
"G+	c #A2C43A",
"H+	c #A5C038",
"I+	c #A9C13A",
"J+	c #AEC43F",
"K+	c #B5CA46",
"L+	c #B8CE4A",
"M+	c #B8D24C",
"N+	c #B7D24B",
"O+	c #B6CF4A",
"P+	c #B3C945",
"Q+	c #ADC33C",
"R+	c #A7BF36",
"S+	c #A1E753",
"T+	c #9AE34F",
"U+	c #90DE48",
"V+	c #86D840",
"W+	c #82D43C",
"X+	c #87D53F",
"Y+	c #8ED842",
"Z+	c #95DA47",
"`+	c #A2E04E",
" @	c #A4DF4F",
".@	c #A3DD4D",
"+@	c #A2DB4B",
"@@	c #A1D547",
"#@	c #9ED143",
"$@	c #98CF3F",
"%@	c #93CD3B",
"&@	c #94C939",
"*@	c #A3C037",
"=@	c #A9C03A",
"-@	c #B0C640",
";@	c #B9CD48",
">@	c #BFD24E",
",@	c #C2D652",
"'@	c #C3D855",
")@	c #C3D653",
"!@	c #C1D14F",
"~@	c #B7C845",
"{@	c #ACC33C",
"]@	c #9BE450",
"^@	c #9DE34F",
"/@	c #9CE04D",
"(@	c #93DB46",
"_@	c #88D640",
":@	c #8AD640",
"<@	c #92D744",
"[@	c #9FDC4C",
"}@	c #A8DF50",
"|@	c #ABE051",
"1@	c #ACDE50",
"2@	c #AAD94D",
"3@	c #A6D84B",
"4@	c #A0D545",
"5@	c #99D142",
"6@	c #98CC3C",
"7@	c #9AC638",
"8@	c #A6C137",
"9@	c #A9C43C",
"0@	c #B2C843",
"a@	c #BCCD4A",
"b@	c #C3D350",
"c@	c #C6D855",
"d@	c #C8D956",
"e@	c #C7D754",
"f@	c #C3D250",
"g@	c #BACB49",
"h@	c #B0C540",
"i@	c #A7C038",
"j@	c #97DF4C",
"k@	c #96DD48",
"l@	c #97DB48",
"m@	c #94DA46",
"n@	c #8BD742",
"o@	c #84D23B",
"p@	c #8BD23D",
"q@	c #95D541",
"r@	c #A1D647",
"s@	c #A9D94C",
"t@	c #AFDC51",
"u@	c #B0DD51",
"v@	c #ADDD4F",
"w@	c #A4D849",
"x@	c #9FD142",
"y@	c #9BCA3C",
"z@	c #98C839",
"A@	c #A4C43B",
"B@	c #B2CC46",
"C@	c #BBCD4A",
"D@	c #C6D553",
"E@	c #C7D755",
"F@	c #C5D553",
"G@	c #BFD14E",
"H@	c #B6CE49",
"I@	c #A7C33B",
"J@	c #9FC639",
"K@	c #A5C53B",
"L@	c #A8C33C",
"M@	c #A5C33A",
"N@	c #8DD843",
"O@	c #8BD43F",
"P@	c #8AD43E",
"Q@	c #89D640",
"R@	c #86D43E",
"S@	c #85D23B",
"T@	c #8ECE3B",
"U@	c #98CE3E",
"V@	c #A0D143",
"W@	c #A8D84A",
"X@	c #ADDC4F",
"Y@	c #AAD54A",
"Z@	c #A6CF44",
"`@	c #9FCA3C",
" #	c #9AC939",
".#	c #A1C337",
"+#	c #A0C63A",
"@#	c #A7C93F",
"##	c #B1CB44",
"$#	c #B9CA47",
"%#	c #BDCB4A",
"&#	c #C2CE4D",
"*#	c #C2CE4E",
"=#	c #BDCF4B",
"-#	c #B6CD49",
";#	c #B0CB44",
">#	c #AAC63F",
",#	c #9FC63A",
"'#	c #A3C93E",
")#	c #ABCB43",
"!#	c #B1CC45",
"~#	c #B2C944",
"{#	c #AEC640",
"]#	c #A2C238",
"^#	c #94CA39",
"/#	c #9ED243",
"(#	c #A7D84B",
"_#	c #ACD94D",
":#	c #ACD147",
"<#	c #A5CD42",
"[#	c #9ECA3D",
"}#	c #9BC739",
"|#	c #9DC639",
"1#	c #A2C63B",
"2#	c #AAC53D",
"3#	c #B1C33F",
"4#	c #B4C240",
"5#	c #B7C240",
"6#	c #B5C23F",
"7#	c #B0C43F",
"8#	c #A9C63F",
"9#	c #A5C63C",
"0#	c #A7C43A",
"a#	c #A9C73E",
"b#	c #AFCB44",
"c#	c #B5CF49",
"d#	c #BAD14C",
"e#	c #BBCE4B",
"f#	c #B4C845",
"g#	c #91CC39",
"h#	c #96CD3D",
"i#	c #A8D448",
"j#	c #B1D24A",
"k#	c #B3CF48",
"l#	c #AECF46",
"m#	c #9FC93C",
"n#	c #A0C437",
"o#	c #A7BE36",
"p#	c #ABBD37",
"q#	c #AEBB37",
"r#	c #AEB936",
"s#	c #ADBB36",
"t#	c #A9BF38",
"u#	c #A1C538",
"v#	c #A4C43A",
"w#	c #B7CC47",
"x#	c #B8D14B",
"y#	c #B6CD48",
"z#	c #B1C741",
"A#	c #ABC13B",
"B#	c #92CC39",
"C#	c #97CC3C",
"D#	c #9FCD40",
"E#	c #AACE44",
"F#	c #B1CD47",
"G#	c #ADD047",
"H#	c #A4D144",
"I#	c #A0CC3F",
"J#	c #ACB935",
"K#	c #ADB835",
"L#	c #ACBA35",
"M#	c #AABC36",
"N#	c #A6BF36",
"O#	c #A0C337",
"P#	c #B0C842",
"Q#	c #B4CB46",
"R#	c #B5CD48",
"S#	c #B4D049",
"T#	c #AFCE46",
"U#	c #A7C63D",
"V#	c #A7C138",
"W#	c #A6BF37",
"X#	c #98C939",
"Y#	c #9EC93C",
"Z#	c #A4CA40",
"`#	c #A3CE42",
" $	c #9FCF42",
".$	c #A1CA3D",
"+$	c #AFBD3A",
"@$	c #AFBF3B",
"#$	c #ABC13A",
"$$	c #B1C641",
"%$	c #B8CF49",
"&$	c #BBD34D",
"*$	c #BAD44F",
"=$	c #8ACF3A",
"-$	c #8FCF3D",
";$	c #8ED13D",
">$	c #8AD33D",
",$	c #9BC638",
"'$	c #98CA3A",
")$	c #99CA3B",
"!$	c #A0C539",
"~$	c #ABBA35",
"{$	c #B0BB39",
"]$	c #B4BF3E",
"^$	c #B6C542",
"/$	c #B4C643",
"($	c #AFC540",
"_$	c #AAC23B",
":$	c #A8BE38",
"<$	c #A9C139",
"[$	c #B0C943",
"}$	c #B8D44E",
"|$	c #ACCB43",
"1$	c #90CF3D",
"2$	c #99D544",
"3$	c #9CD948",
"4$	c #9ADB49",
"5$	c #87D23D",
"6$	c #9BC738",
"7$	c #A1C238",
"8$	c #ACBA36",
"9$	c #AFBC39",
"0$	c #B5C13F",
"a$	c #BAC845",
"b$	c #BACC48",
"c$	c #B8CC48",
"d$	c #B3C944",
"e$	c #ADC43E",
"f$	c #A8C840",
"g$	c #ABC840",
"h$	c #A6C63D",
"i$	c #8DCF3C",
"j$	c #99D745",
"k$	c #9CDC49",
"l$	c #94D945",
"m$	c #8FD23E",
"n$	c #90CB39",
"o$	c #94CD3B",
"p$	c #9ACC3D",
"q$	c #A1CC3F",
"r$	c #A7CB40",
"s$	c #A9CA41",
"t$	c #A4C239",
"u$	c #A4BF37",
"v$	c #ADBB37",
"w$	c #B3C03E",
"x$	c #BAC645",
"y$	c #BFCB4A",
"z$	c #BFCF4D",
"A$	c #BDCF4C",
"B$	c #B7CB47",
"C$	c #96D341",
"D$	c #93D340",
"E$	c #92CF3C",
"F$	c #94CA3A",
"G$	c #98CB3C",
"H$	c #9CCF40",
"I$	c #A2D345",
"J$	c #A7D548",
"K$	c #AAD348",
"L$	c #ADD048",
"M$	c #AECE45",
"N$	c #ABCB42",
"O$	c #A8C53D",
"P$	c #ABBB36",
"Q$	c #AFBE3A",
"R$	c #B6C442",
"S$	c #BECA49",
"T$	c #C1CF4D",
"U$	c #C1CF4E",
"V$	c #BCCE4B",
"W$	c #B1CA44",
"X$	c #A2C83D",
"Y$	c #99C738",
"Z$	c #94CB3A",
"`$	c #93CB3A",
" %	c #96CB3C",
".%	c #9FCA3E",
"+%	c #ADD94E",
"@%	c #AED84D",
"#%	c #B0D64C",
"$%	c #B1D34A",
"%%	c #A9C840",
"&%	c #AABB35",
"*%	c #AABD37",
"=%	c #AEC03C",
"-%	c #B6C743",
";%	c #BBCB49",
">%	c #BDCE4B",
",%	c #B6D04A",
"'%	c #ADCE45",
")%	c #9AC739",
"!%	c #92CA39",
"~%	c #96CA3A",
"{%	c #9DCB3D",
"]%	c #A9CE44",
"^%	c #ABD449",
"/%	c #ACD54A",
"(%	c #ABD348",
"_%	c #ABD047",
":%	c #A4C93F",
"<%	c #A8BE36",
"[%	c #A9BD36",
"}%	c #ADBF3A",
"|%	c #B1C540",
"1%	c #B2CA44",
"2%	c #A9CC42",
"3%	c #A2C93D",
"4%	c #95CA39",
"5%	c #95CB3A",
"6%	c #93CB39",
"7%	c #9DC93B",
"8%	c #A1C93D",
"9%	c #A2CB3F",
"0%	c #A3CC41",
"a%	c #A5CB40",
"b%	c #9CC83B",
"c%	c #A7BE37",
"d%	c #ABBE38",
"e%	c #ACBB36",
"f%	c #ABBA36",
"g%	c #AABB36",
"h%	c #A8BF38",
"i%	c #A6C53C",
"j%	c #A5CA3F",
"k%	c #A0C73B",
"l%	c #9DC539",
"m%	c #9CC73A",
"n%	c #9EC539",
"o%	c #99C638",
"p%	c #ACBE39",
"q%	c #B2C03D",
"r%	c #B4BF3D",
"s%	c #B3BE3D",
"t%	c #B1C03C",
"u%	c #9EC73B",
"v%	c #9EC639",
"w%	c #95C839",
"x%	c #B0BF3B",
"y%	c #B7C543",
"z%	c #BCC747",
"A%	c #BDC847",
"B%	c #BBCA48",
"C%	c #B7C744",
"D%	c #B4C23F",
"E%	c #B2BF3C",
"F%	c #AEBD3A",
"G%	c #A9BE38",
"H%	c #A4C137",
"I%	c #A0C439",
"J%	c #A0C93B",
"K%	c #A2C93E",
"L%	c #A7CA40",
"M%	c #A8CB41",
"N%	c #A4CD41",
"O%	c #9DCD3F",
"P%	c #94CE3D",
"Q%	c #8ECE3A",
"R%	c #91D03E",
"S%	c #93CF3D",
"T%	c #97CB3B",
"U%	c #AEBE3A",
"V%	c #B5C441",
"W%	c #C0CC4B",
"X%	c #C1CE4D",
"Y%	c #BECD4B",
"Z%	c #BCCA49",
"`%	c #BBC947",
" &	c #B9C947",
".&	c #B8CA46",
"+&	c #B5C945",
"@&	c #AFC943",
"#&	c #ACCC45",
"$&	c #ADD148",
"%&	c #B0D349",
"&&	c #B2D24A",
"*&	c #AED44A",
"=&	c #A3D547",
"-&	c #97D241",
";&	c #8ECF3C",
">&	c #9DD646",
",&	c #9ED848",
"'&	c #9ED949",
")&	c #9FD546",
"!&	c #9DCE40",
"~&	c #9BC83A",
"{&	c #ABBC37",
"]&	c #A8C139",
"^&	c #B1C43F",
"/&	c #BECB4A",
"(&	c #C2CF4E",
"_&	c #C2D04F",
":&	c #BFCF4E",
"<&	c #BBCE4C",
"[&	c #BACE4A",
"}&	c #BDD04C",
"|&	c #BDD34F",
"1&	c #BBD650",
"2&	c #B6D74F",
"3&	c #B8D850",
"4&	c #B9DA52",
"5&	c #B4DB51",
"6&	c #B1DA4F",
"7&	c #ADD74D",
"8&	c #A6D447",
"9&	c #99D141",
"0&	c #8FCE3B",
"a&	c #A7DF4F",
"b&	c #A4DE4F",
"c&	c #A4DC4C",
"d&	c #A0D445",
"e&	c #99CD3D",
"f&	c #98C838",
"g&	c #A9C33C",
"h&	c #B4C844",
"i&	c #C2D04E",
"j&	c #C3D150",
"k&	c #B8D34D",
"l&	c #B9D14B",
"m&	c #BDD24E",
"n&	c #BFD853",
"o&	c #BFDD56",
"p&	c #BBDD54",
"q&	c #BADB53",
"r&	c #BCDB53",
"s&	c #BCDE56",
"t&	c #BAE056",
"u&	c #B6DE53",
"v&	c #AED74C",
"w&	c #A1D144",
"x&	c #95CD3C",
"y&	c #A3DF4F",
"z&	c #9CDA48",
"A&	c #9AD243",
"B&	c #A4C038",
"C&	c #A9C039",
"D&	c #AFC43F",
"E&	c #B4CC47",
"F&	c #B6D24B",
"G&	c #B7D24C",
"H&	c #B7D44D",
"I&	c #B6D850",
"J&	c #B9DB53",
"K&	c #BADD54",
"L&	c #BCDC54",
"M&	c #BDDE55",
"N&	c #BCE056",
"O&	c #B9DD54",
"P&	c #AFD54C",
"Q&	c #9CD141",
"R&	c #8FCD3B",
"S&	c #8ED43F",
"T&	c #91CB39",
"U&	c #A2C53A",
"V&	c #A2C438",
"W&	c #A3C338",
"X&	c #A2C037",
"Y&	c #ADC941",
"Z&	c #ACCA43",
"`&	c #AACF45",
" *	c #ACD349",
".*	c #AFD54B",
"+*	c #B1D54C",
"@*	c #B0D34A",
"#*	c #B1D44C",
"$*	c #B1D74D",
"%*	c #B0D54B",
"&*	c #A8D046",
"**	c #99CF3F",
"=*	c #8FCD3A",
"-*	c #8BCE3A",
";*	c #9CC638",
">*	c #A6C33A",
",*	c #A7C940",
"'*	c #A5C73E",
")*	c #A8C53C",
"!*	c #A7C63C",
"~*	c #9FC337",
"{*	c #9DCB3E",
"]*	c #9FC93D",
"^*	c #9ECA3C",
"/*	c #9FCB3E",
"(*	c #A1CD3F",
"_*	c #96CD3C",
":*	c #A5C73D",
"<*	c #ACC740",
"[*	c #B2CB45",
"}*	c #AFCD45",
"|*	c #A8CA40",
"1*	c #A2C73C",
"2*	c #97C839",
"3*	c #95C939",
"4*	c #94CB39",
"5*	c #91CA39",
"6*	c #9DC638",
"7*	c #9BC538",
"8*	c #B6D14B",
"9*	c #B6D34C",
"0*	c #ABCD44",
"a*	c #B5D54E",
"b*	c #B9D850",
"c*	c #B6D64E",
"d*	c #B0D44B",
"e*	c #A8D045",
"f*	c #A1CB3F",
"g*	c #9BC93A",
"h*	c #9EC63A",
"i*	c #A4CF43",
"j*	c #B4D64D",
"k*	c #BCD751",
"l*	c #BBD54F",
"m*	c #A9D247",
"n*	c #9DCA3D",
"o*	c #99C838",
"p*	c #7CD43B",
"q*	c #96C839",
"r*	c #AFCF47",
"s*	c #BBD44E",
"t*	c #BDD550",
"u*	c #B8D44D",
"v*	c #B1D54B",
"w*	c #A4D043",
"x*	c #A4C83E",
"y*	c #AFCF46",
"z*	c #B5D44D",
"A*	c #B2D44C",
"B*	c #B0D44C",
"C*	c #AED64B",
"D*	c #A9D348",
"E*	c #A4CB40",
"F*	c #ABCC43",
"G*	c #AFD148",
"H*	c #B1D149",
"I*	c #B1D249",
"J*	c #A9C940",
"K*	c #A1C63A",
"L*	c #8ECD3A",
"M*	c #A3CA3F",
"N*	c #ABCA42",
"O*	c #ACCA42",
"P*	c #A7CB41",
"Q*	c #A2C439",
"R*	c #93CA39",
"S*	c #8ACE3A",
"T*	c #9CC739",
"U*	c #9FC63B",
"V*	c #9EC83B",
"W*	c #9CC538",
"X*	c #8DCD3A",
"Y*	c #89CF3A",
"                . + @ # $ % $ & * = - ; > , ' ) ! ~ ~ { ] ^ / ( _ : < [ [ [ } | } 1 2 3 4 3 5 5 6 7 ",
"              8 9 $ 0 a $ 0 b - c d e f g h * i j k l m 5 n 2 2 < 4 2 1 o o 5 o o [ 5 3 p q p 4 2 6 ",
"  r         s . 9 t u v $ # b h w x y z A B C D j 7 E | o 5 F | o 2 | 1 [ 5 3 p q p p 3 o o 3 < [ | ",
"s G         H I t t % $ J 0 K L M N O O P Q R S ! E m 2 3 3 3 4 o F 6 m 2 < p p : T T p n < 3 5 2 2 ",
"        s s s U 9 u $ # b @ V W X Y Z X `  ...! +.m | 4 @.#.#.$.o F E 6 [ 4 4 3 < 4 < 5 o 3 2 F } 2 ",
"s s s s 8 U U I 9 % # - , ; %.&.*.=.-.;.>.,.'.+.m 5 q @.).!.~.$.5 {.].^./.(.p p q < } | o 2 6 E | o ",
". I 8 8 . I 9 t u $ & = * _.:.<.[.}.|.1.2.~ 3.6 3 @.4.#.5.~.4.3 1 6.7.8.9.0.a.: b.3 | [ 3 2 ~ '.1 4 ",
"I c.d.d.c.t u v % 0 ' e.) ) e.) = = f.g.h.'.+.| T #.5.#.#.i.j.2 k.l.m.n.o.p.q.r.3 2 s.o q < E +.1 5 ",
"9 t t v + $ % u $ ; g.j '.7 t.j e.) u.v.t.! '.F b.5.5.4.w.x.y.z.k.A.B.C.D.E.F.G.H.n q I.$.p | } 2 2 ",
"u v v + 0 J + + J.K.L.'.'.t.! M.L.L.j ! ! M.'.2 N.5.O.P.Q.R.S.j.2 T.U.V.W.X.Y.Z.`.< $. +$.p o o o [ ",
"% $ $ .+0 .+.+b , g.j M.v.j ++++t.M.! ! ! '.E 3 @+#+$+%+&+*+O.$.3 n 5 =+-+;+>+,+'+j.#.#.I.3 2 5 < p ",
"+ $ a .+J # b - c ) e.) )+u.M.7 '.7 k 7 +.6 !+3 I.~+{+]+^+/+(+: q I.I.I.S._+:+<+[+}+~.@.3 | | o q $.",
"$ + + a # b ; ; , ' * ' c u.'.+.l '.'.E 1 5 5 < b.$.|+1+2+w.3+3 p @. +@.@. +4+j.5+ + +T o o o o 4 I.",
"0 $ % $ # b & & ; , K.K.* t.E +.7 '.6 5 < < p |+~+6+7+5+@.@.b.3 4 4+ +4.#.4.@.4+b.: : q < 3 < < : N.",
"8+0 .+J # b ; _.- , , , g.l m ~ '.E 5 p 3 9+1+0+a+0+b+c+w.d+a.n 3 b. +#.#. +$.p n o p : q 3 3 b.4+@.",
"e+f+0 J # & , ' ' g+K.' j m | E 3.| 4 q 9+h+i+j+k+l+x.m+n+o+p+q+r+6+4.#.#.4+q 3 5 o p I.q p I.4+4+T ",
"s+t+u+v+# w+<.x+y+z+A+B+C+D+m E 6 2 4 p p E+F+G+1+H+I+J+K+L+M+N+O+P+Q+R+@.I.q 3 3 q b.I.b.I.I.I.$.T ",
"S+T+U+V+W+X+Y+Z+`+ @.@+@@@#@$@%@&@5 4 p p q j.5+*@4.=@-@;@>@,@'@)@!@~@{@*@$.b.q I.4+$.I.I.: < p I.4+",
"]@^@/@(@_@e :@<@[@}@|@1@2@3@4@5@6@7@< : b.I.$.@.4.8@9@0@a@b@c@d@e@f@g@h@i@$.q *@ +$.: : b.q 3 p @.#.",
"j@k@l@m@n@:.o@p@q@r@s@t@u@v@w@x@y@z@2 < q : I.@.3+A@p+B@C@!@D@E@F@G@H@o+I@9+J@K@L@M@5+j.T q 3 q N.@.",
"N@O@P@Q@R@S@g.e.T@U@V@W@X@X@Y@Z@`@ #1 5 < p T $..#+#@###$#%#&#*#=#-#;#>#A@,#'#)#!#~#{#0+]#(.5 o < 5 ",
"' ) c _.K.) L.L.! ^#{ /#(#_#7.:#<#[#}#3 p p q q z.|#1#2#3#4#5#6#7#8#9#0+0#a#b#c#d#e#f#&+1+9+s.s.s.2 ",
"c ) c ' u.! j j l ~ g#h##@i#j#k#l#<#m#n#I.q 4 p q q 5+o#p#q#r#s#t#]#u#v#_+0@w#x#M+y#z#A#7+5 !+1 5 3 ",
"' ' , = j j L.j ! j ! B#C#D#E#F#G#H#I#F+|+q q I.@.4+@.5.J#K#L#M#N#|+O#{+P#Q#R#S#T#U#V#W#: 2 } } 5 2 ",
"- - K.) v.) c g.L.v.! +.&@X#Y#Z#`# $.$1+j.q b.@. +$.@.~.J#q#+$@$#$S.3+I+$$%$&$*$j#)#d+4+q 5 | F !+3.",
"- K.=$-$;$>$o@' ) j 7 l ~ m 2 ,$'$)$!$6+*@N. + +N.4+#.~$L#{$]$^$/$($_$:$<$[$c#}$j#|${+]#< 2 F 6 +.! ",
"K.)+1$2$3$4$Y+5$v.'.'.7 +.| |#,#T.6$7$@.@.@.@.4+$. +5.!.8$9$0$a$b$c$d$e$#+*@i+f$g$h$r./.o s.F 6 ~ ! ",
"' ) v.i$j$k$l$m$n$~ g#o$p$q$r$s$q+i+t$@+u$}+4+I.$.4.).~.~$v$w$x$y$z$A$B$J+F+3 q p 2 2 2 2 5 [ m ~ '.",
"' g.) ) -$C$D$E$F$G$H$I$J$K$L$M$N$O$S.@+ +(+d+6+@+o##.5.~.P$Q$R$S$T$U$V$W$X$Y$2 2 2 } } [ 3 5 6 '.~ ",
"' g.)+) ++Z$`$ %.%A.Y@+%@%#%$%T#%%A@7+N.@.4+]#6+(+o##.5.&%&%*%=%-%;%>%,%'%'#)%| 1 2 | F 1 2 } ^#!%+.",
", c g.L.7 3.~%{%Z#]%^%/%(%_%]%:%,#z.q $.$.: |+H+o#<%~.~$~$~$5.[%}%|%1%M$2%3%}#1 5 5 | 6 6 4%5%6%n$7 ",
"- ' g.v.7 +.D+7%8%9%0%a%'#m#b%}#2 o p : b.$.u$c%d%p#e%J#f%f%f%~$g%h%i%j%'#k%l%p p p s.3.~ l n$! M.k ",
"- c e.M.l 6 s.,$H.}#m%n%,$o%5 o 3 3 o < $. +<%p%q%r%s%t%}%e%e%f%~.@.n#u%u%v%(.a.F+H.w%'.! '.! t.M.~ ",
"= L.j M.~ !+2 o o 2 2 | F 2 3 < < 5 } 3 u$).&%x%y%z%A%B%C%D%E%F%G%H%I%J%K%q+L%M%N%O%P%Q%t.! k ! ! +.",
"S ,.R%S%T%k.5 3 3 5 | 6 | 3 < 3 3 5 2 q R+P$f%U%V%W%X%Y%Z%`% &.&+&@&#&$&%&&&$%*&Y@=&-&;&j t.! ! t.'.",
">&,&'&)&!&~&o 3 3 2 m 6 2 < 3 4 4 o 3 I.i.{&*%]&^&/&(&_&:&<&[&}&|&1&2&2&3&4&5&6&7&8&9&0&h.j ! j j ! ",
"a&b&c&d&e&f&2 2 2 } 6 m 5 3 o 3 3 5 3 I.i.[%(+@+g&h&i&j&|&k&l&m&n&o&p&q&r&s&t&u&v&w&x&++v.v.L.u.L.v.",
"y&z&A&{ ^#F | | s.o o o 3 < 3 o 2 5 q $.@.R+W#H%B&C&D&E&F&G&M+H&I&J&K&L&m.M&N&O&P&Q&R&j v.L.u.e.L.L.",
"S&..g#T&'.+.m F 2 q ]#U&U&V&q 4 < q @.@.u$d+2+W&X&@.*@W&U#Y&Z&E#`& *.*+*@*#*$*%*&***=*j h.j j v.L.u.",
"-*! 7 ! t.'.6 F ;*>*&+,*'*t$*@T q $. +@.W&)*&+!*1+|+: q q ~*z.9+I%^.{*]*`.^*/*(*O%_*g#t.j j j j ) c ",
"7 ! M.j j '.6 } /.K@:*'#k%r.q p 3 : $.|+v#<*[*}*|*1*/.4 3 5 5 p q 5 2*} 1 F m 3*4*5*n$M.t.j v.e.c , ",
"M.j v.L.t.~ m o : /.l%6*7*5 3 o 2 5 3 j.>*@&8*9*,+]%3%|#2 F | 5 n 2 !+| } F 6 E 3.+.'.'.'.! j e.' ; ",
"L.u.e.L.! +.F o < o 5 5 s.1 2 | F | < X&A@0*a*b*c*d*e*f*g*D+!+2 o 5 | | 2 } F 6 +.+.E E '.j j ) - b ",
") ) L.t.'.6 | | | s.[ 2 | | } m m [ b.I.h*i*j*k*l*9**&m*<#n*o*5 o 5 s.1 s.F 6 ~ '.+.m +.L.) L.c p*# ",
")+) t.~ E m m E 6 } 2 | m | | F 1 3 T 3 q*{*r*s*t*u*v*.* *w*[#;*5 2 !+6 3.~ ! t.! +.E 7 ) e.L.- $ .+",
"= L.l m F 6 ~ '.E } | m m F !+s.3 p p 2 m }#x*y*8.z*A*B*C*D*E*,#7@| E ~ '.M.L.L.! l l ! L.u.) ; J p*",
"g.M.m s.F '.h.j ~ m 6 E m m | 5 p I.: o o 4 r.9#F*G*H*I*^ G#J*K*7@m '.!%6%L*e.v.M.t.L.) * ' - b b ; ",
"j E s.F +.! L.L.t.7 k ~ 6 F 2 3 q b.4 5 3 p T |+K*M*N*O*2%P*h$Q*o%7 ! R*B#S S*h.u.c K., > - _.; ; ; ",
"'.m 6 '.k '.! h.j M.'.E m | 5 < 4 3 5 5 p b.: < [ Y$T*U*V*u%v%W*6 t.! '.X*D Y*g.' - - , , K., _.b # ",
"l 7 L.L.M.! M.j t.7 +.6 6 | 5 3 3 5 s.o I.$.p 3 2 | | 2 2 } F 6 '.! t.L.) L.u.g.c ' ' * ' K., & 0 $ "};
