/* XPM */
static char * acid2_xpm[] = {
"50 50 463 2",
"  	c #6ADB3C",
". 	c #6ADA3C",
"+ 	c #71DC46",
"@ 	c #6AD93B",
"# 	c #83E05F",
"$ 	c #6AD93C",
"% 	c #6BD73B",
"& 	c #6BD53A",
"* 	c #6AD83B",
"= 	c #6BD63B",
"- 	c #6AD73B",
"; 	c #6AD63A",
"> 	c #6BD239",
", 	c #6BD339",
"' 	c #6CCA36",
") 	c #6BD139",
"! 	c #6BD53B",
"~ 	c #6BD43A",
"{ 	c #6BCE38",
"] 	c #6BD83B",
"^ 	c #6CD039",
"/ 	c #6CCE38",
"( 	c #6CD139",
"_ 	c #6CCC37",
": 	c #6DC836",
"< 	c #6CCF38",
"[ 	c #6CCB37",
"} 	c #6DC435",
"| 	c #6CCA37",
"1 	c #6DCA37",
"2 	c #6AD83C",
"3 	c #6DC234",
"4 	c #6DC736",
"5 	c #6DC636",
"6 	c #6BD439",
"7 	c #6BD63A",
"8 	c #6BD33A",
"9 	c #7EE059",
"0 	c #75DE4D",
"a 	c #80E05C",
"b 	c #78DF51",
"c 	c #6CCC38",
"d 	c #6DC535",
"e 	c #6DC937",
"f 	c #6BD038",
"g 	c #6CCF39",
"h 	c #A6E987",
"i 	c #A2E885",
"j 	c #A7E988",
"k 	c #9BE67E",
"l 	c #6DC936",
"m 	c #6CD038",
"n 	c #6EBF33",
"o 	c #6EBD33",
"p 	c #6DCB37",
"q 	c #6DC235",
"r 	c #6DC134",
"s 	c #6FBC32",
"t 	c #6DC536",
"u 	c #6DC335",
"v 	c #7DDE58",
"w 	c #8FE36D",
"x 	c #8CE26A",
"y 	c #82E05E",
"z 	c #6BD039",
"A 	c #6EBC33",
"B 	c #6FB631",
"C 	c #6FB12F",
"D 	c #6FB430",
"E 	c #6EBC32",
"F 	c #6EC335",
"G 	c #6EBF34",
"H 	c #6CC836",
"I 	c #6DC635",
"J 	c #6EC034",
"K 	c #6EB932",
"L 	c #70B12F",
"M 	c #6FB02F",
"N 	c #6FB531",
"O 	c #6FB931",
"P 	c #6EC235",
"Q 	c #6CD23A",
"R 	c #6FBA32",
"S 	c #6FB830",
"T 	c #71AF2F",
"U 	c #70AA2C",
"V 	c #70AF2E",
"W 	c #70AB2E",
"X 	c #70AD2E",
"Y 	c #70AE2F",
"Z 	c #6EBD32",
"` 	c #6EBA32",
" .	c #6EB931",
"..	c #6EB832",
"+.	c #6FBB33",
"@.	c #6FB22E",
"#.	c #70AF2F",
"$.	c #71A52B",
"%.	c #71A32B",
"&.	c #719F29",
"*.	c #729D29",
"=.	c #719E2A",
"-.	c #719F28",
";.	c #70AD2D",
">.	c #6FB530",
",.	c #6EC435",
"'.	c #6CCD37",
").	c #75DC4D",
"!.	c #90E16F",
"~.	c #91E270",
"{.	c #6DC133",
"].	c #6FB730",
"^.	c #6FB230",
"/.	c #6FAF2E",
"(.	c #6FB32F",
"_.	c #70AB2D",
":.	c #729F2A",
"<.	c #719F2A",
"[.	c #71A72B",
"}.	c #71A82C",
"|.	c #71A12A",
"1.	c #6EB732",
"2.	c #88E064",
"3.	c #AEEA90",
"4.	c #ACE68E",
"5.	c #6FB831",
"6.	c #70B430",
"7.	c #6EBB32",
"8.	c #6EB631",
"9.	c #738F24",
"0.	c #739326",
"a.	c #729426",
"b.	c #739325",
"c.	c #719E29",
"d.	c #71A42B",
"e.	c #6FB02E",
"f.	c #6EBE33",
"g.	c #6EBB33",
"h.	c #6DC735",
"i.	c #6CCD38",
"j.	c #6EC134",
"k.	c #6FB731",
"l.	c #6ED640",
"m.	c #6ED13F",
"n.	c #6FBC33",
"o.	c #6FAD2E",
"p.	c #70AE2E",
"q.	c #233C09",
"r.	c #70A12B",
"s.	c #739426",
"t.	c #729827",
"u.	c #71A02A",
"v.	c #82B257",
"w.	c #70A72D",
"x.	c #70A72C",
"y.	c #6FB630",
"z.	c #6EBE34",
"A.	c #6FB330",
"B.	c #70B02F",
"C.	c #608423",
"D.	c #1D2805",
"E.	c #729A28",
"F.	c #81A652",
"G.	c #A1BC88",
"H.	c #ABC998",
"I.	c #70A82C",
"J.	c #70A32B",
"K.	c #70B02E",
"L.	c #70B330",
"M.	c #6EB831",
"N.	c #6CC635",
"O.	c #6AD63B",
"P.	c #6AD53A",
"Q.	c #6CC736",
"R.	c #6FBB32",
"S.	c #67A52B",
"T.	c #233709",
"U.	c #668F24",
"V.	c #729828",
"W.	c #729C28",
"X.	c #82AD56",
"Y.	c #B4CAA3",
"Z.	c #BBD2AD",
"`.	c #ABC697",
" +	c #B4C4A0",
".+	c #729226",
"++	c #71AA2D",
"@+	c #6EC234",
"#+	c #78BB32",
"$+	c #73BC32",
"%+	c #6DC033",
"&+	c #6EC033",
"*+	c #6FBB31",
"=+	c #6FB932",
"-+	c #70AC2D",
";+	c #71A22B",
">+	c #243308",
",+	c #738D24",
"'+	c #ACBC97",
")+	c #ACBF97",
"!+	c #BDCDAE",
"~+	c #B9BEA0",
"{+	c #84A04F",
"]+	c #B2C39D",
"^+	c #B5C5A1",
"/+	c #B3D4A2",
"(+	c #ABCC98",
"_+	c #6FC033",
":+	c #70B22F",
"<+	c #6CCA38",
"[+	c #6CC435",
"}+	c #6DBF34",
"|+	c #6FAE2E",
"1+	c #70A92D",
"2+	c #719827",
"3+	c #729C27",
"4+	c #738621",
"5+	c #738722",
"6+	c #738C23",
"7+	c #C2CDB5",
"8+	c #A1B688",
"9+	c #ACB996",
"0+	c #88A760",
"a+	c #B4C09F",
"b+	c #849D4F",
"c+	c #759024",
"d+	c #739F29",
"e+	c #B6CEA6",
"f+	c #6FAD2D",
"g+	c #6DC434",
"h+	c #6CCE39",
"i+	c #6AD73C",
"j+	c #6BD13A",
"k+	c #6CC937",
"l+	c #6DBF33",
"m+	c #729225",
"n+	c #729324",
"o+	c #738622",
"p+	c #739024",
"q+	c #748F2D",
"r+	c #828E4E",
"s+	c #9AA47A",
"t+	c #BFC5AD",
"u+	c #979F69",
"v+	c #A4A377",
"w+	c #819124",
"x+	c #7B8F25",
"y+	c #789125",
"z+	c #B7C7A4",
"A+	c #70A92C",
"B+	c #6CCB36",
"C+	c #6AD539",
"D+	c #6AD439",
"E+	c #6AD73A",
"F+	c #70AE2D",
"G+	c #6FB130",
"H+	c #70AD2F",
"I+	c #70AC2C",
"J+	c #70A42A",
"K+	c #719D28",
"L+	c #729325",
"M+	c #748220",
"N+	c #ADAF95",
"O+	c #A4AD89",
"P+	c #819640",
"Q+	c #B0A688",
"R+	c #9A8C55",
"S+	c #ABA679",
"T+	c #838F26",
"U+	c #778E24",
"V+	c #729326",
"W+	c #BFCAB0",
"X+	c #85C862",
"Y+	c #6BCB37",
"Z+	c #6DC534",
"`+	c #6FB22F",
" @	c #6FAE2F",
".@	c #719C28",
"+@	c #719826",
"@@	c #709F29",
"#@	c #739023",
"$@	c #757C1E",
"%@	c #B7BDA5",
"&@	c #738922",
"*@	c #969B6C",
"=@	c #9B8661",
"-@	c #B3927E",
";@	c #9D8550",
">@	c #A69970",
",@	c #7C7E20",
"'@	c #758622",
")@	c #87A35D",
"!@	c #85BF60",
"~@	c #6EC334",
"{@	c #6DC334",
"]@	c #93D16E",
"^@	c #A7DC86",
"/@	c #78BC43",
"(@	c #71A42C",
"_@	c #70A22B",
":@	c #729B28",
"<@	c #719527",
"[@	c #729D28",
"}@	c #729726",
"|@	c #738522",
"1@	c #B8BEA5",
"2@	c #778822",
"3@	c #7B8421",
"4@	c #ADAB8E",
"5@	c #9E966C",
"6@	c #A79471",
"7@	c #947E3F",
"8@	c #84781D",
"9@	c #768E24",
"0@	c #70AA2D",
"a@	c #6BD23A",
"b@	c #6BCF38",
"c@	c #6DCC38",
"d@	c #81CC57",
"e@	c #9ED27B",
"f@	c #7CB547",
"g@	c #71A62B",
"h@	c #71A82B",
"i@	c #738320",
"j@	c #748420",
"k@	c #729525",
"l@	c #738A23",
"m@	c #75791D",
"n@	c #B7BFA5",
"o@	c #738B23",
"p@	c #748A23",
"q@	c #83924E",
"r@	c #A3B286",
"s@	c #87A34D",
"t@	c #B4B895",
"u@	c #BCC9A9",
"v@	c #ABCD98",
"w@	c #6EBB31",
"x@	c #6DBF35",
"y@	c #6DC135",
"z@	c #7DC14E",
"A@	c #75B73D",
"B@	c #71A62C",
"C@	c #729B27",
"D@	c #728F23",
"E@	c #739225",
"F@	c #738822",
"G@	c #797C1E",
"H@	c #78801F",
"I@	c #B7BBA4",
"J@	c #758621",
"K@	c #747D1E",
"L@	c #738823",
"M@	c #B7C3A3",
"N@	c #B7C7A5",
"O@	c #70AC2E",
"P@	c #6BD138",
"Q@	c #6BCD38",
"R@	c #6DCB38",
"S@	c #6FB431",
"T@	c #738B24",
"U@	c #748020",
"V@	c #788020",
"W@	c #7B7B1F",
"X@	c #767B1D",
"Y@	c #74791C",
"Z@	c #B7BEA5",
"`@	c #74761D",
" #	c #75751B",
".#	c #ACB896",
"+#	c #81B958",
"@#	c #C3DCB8",
"##	c #91C574",
"$#	c #6DC737",
"%#	c #6CD239",
"&#	c #70B130",
"*#	c #709F2A",
"=#	c #719D29",
"-#	c #739025",
";#	c #728F25",
">#	c #738723",
",#	c #747C1E",
"'#	c #747B1E",
")#	c #747F20",
"!#	c #CBCDBE",
"~#	c #838D4E",
"{#	c #738D23",
"]#	c #82A856",
"^#	c #B7CCA6",
"/#	c #78BD49",
"(#	c #78C14A",
"_#	c #6CC936",
":#	c #6CC636",
"<#	c #729826",
"[#	c #71A72C",
"}#	c #70A62B",
"|#	c #719C29",
"1#	c #748C23",
"2#	c #729427",
"3#	c #728E24",
"4#	c #819C50",
"5#	c #74992F",
"6#	c #739625",
"7#	c #B6C8A4",
"8#	c #87AA5E",
"9#	c #6EB830",
"0#	c #6CC534",
"a#	c #70A62C",
"b#	c #87B15F",
"c#	c #87AF5F",
"d#	c #71A02B",
"e#	c #70A52B",
"f#	c #74BE3F",
"g#	c #70A52A",
"h#	c #6EB02E",
"i#	c #71A22A",
"j#	c #70B230",
"k#	c #6DBE34",
"l#	c #88D662",
"m#	c #72CB41",
"n#	c #6DC837",
"o#	c #6DC336",
"p#	c #6ACE38",
"q#	c #71A32A",
"r#	c #72A12A",
"s#	c #83D45B",
"t#	c #83D05A",
"u#	c #6BCF39",
"v#	c #6AD239",
"w#	c #6CCE37",
"x#	c #6FB12E",
"y#	c #6DC436",
"z#	c #6DCE39",
"A#	c #6DC034",
"B#	c #70B030",
"C#	c #6EC133",
"D#	c #6EC336",
"E#	c #79D44D",
"F#	c #6ED23E",
"G#	c #6BD33B",
"H#	c #79D44E",
"I#	c #6BD037",
"J#	c #6AD43B",
"K#	c #71DB46",
"L#	c #71DA46",
"M#	c #83DB5E",
"N#	c #6AD339",
"O#	c #6CD03B",
"P#	c #70D644",
"Q#	c #83DF5F",
"R#	c #71D544",
"S#	c #7FD757",
"T#	c #71D645",
"U#	c #6AD43A",
"V#	c #78D54E",
"W#	c #7DD755",
"X#	c #7ADD53",
"Y#	c #78D84F",
"Z#	c #7DDA55",
"`#	c #7BD953",
" $	c #70DC45",
".$	c #6BDB3D",
"+$	c #7EDF59",
"                            .   .       + .                                                         ",
"    @   .                   . @ . .     #     @ .                                                   ",
"  . . .       $ @     @ .   . % & * .           .   .                                               ",
"  .     .       & @ . = @ $     % . .             @                                                 ",
"  . .   & % .       . - ; *   * = > *   . @ .   . , & *                                             ",
"    . .   , & .       * % - % $ & ' ) @ . % * .   . % . @                                           ",
"          $ > & $ . . * . . ! - * & $ . . % * . . @ ~ & .                                       . . ",
"              . = . . * ; . % { ~ .       ] % . @ @ ^ ^ @                                       @ @ ",
"              . . $ @ % / ( ~ _ : & $ $ $ . . . @ @ % % .                                         @ ",
"          @   . % * & < ( [ } : | 1 ~ 2 & - @ .   @ % .                                 .   . . . @ ",
"    . @ @ , % . ] % ( 3 1 1 : 4 } 5 ( > 6 ~ ^ 7 8 ) 8 .   @ . 9 0 a b               .       %       ",
"      @ > / < 8 * % _ : < 5 c 4 d 3 e 4 [ f ( e } [ | g * @ % h i j k       .               .     . ",
"      . 8 l , @ = & > m n o : p 4 q 1 c r s | t 5 5 u : ^ ~ & v w x y       % .     .             * ",
"          8 z & % & % | A B C D E < ! < F G | 5 H I q } _ 5 z *   @ $ $     8 7     % .     .   . . ",
"      . $ . * ) > < / d J K L M N E J t o 3 A O 3 : : P 1 [ [ Q * . . . .   & = @         . .       ",
"      * > ( < , , [ d : | u o R S T U V R W X X Y D R 3 [ / [ < 6 = * . % * & *           *   . .   ",
"  . . . * , = @ . > : 3 Z `  ...+.@.#.$.%.&.*.=.-.$.;.>.o 5 ,.'.& & ! ! _ < > * % .       .   .   @ ",
"      . @ @ ).!.~.& ' {.E o ].^./.(._.:.<.[.}.|.%.(.1.>./.N u d > 8 < I ( 8 e 5 d =       . .   . . ",
"      $ . @ 2.3.4.5 J 5.>.D D V 6.7.8.=.9.0.a.b.c.d.e.E f.g.` n 3 h.i.> @ / j.k.f.& @ . $ .     @ . ",
"    . $ ; 7 l.m.[ j.o k.n.B k.(.o.p.q.r.s.t.u.v.w.x.V D y.z.s o A.Z ( ( ! ~ i.n } = ~ % 7 .     .   ",
"    . . * - - 6 6 [ | ` A.B.A.B.C.D.E.&.&.F.G.H.I.J.K.y.7.L.D M.N q N. .3 f.5.7.& . . .   * @ . *   ",
"      $ 2 O.P.z c Q.: R.#._.X S.T.U.V.W.X.Y.Z.`. +.+V.++{.@+D 5.#+$+6.%+&+y.>.E * * 7 * . @ @ $     ",
"    $ P.~ ! / j.n *+o =+Y X -+;+>+%.c.,+a.'+)+!+~+{+]+^+/+(+K c _+:+J <+I f.7.4 ~ @ & $ % ~ 7       ",
"  . @ < z z m 4 j.3 [+}+C |+1+W 2+3+c.4+5+6+7+8+9+0+a+b+c+d+e+#.` f+f.g+h+5 } / = . . . . P..       ",
"      $ i+O.j+k+Z u 4 n 7.l+>.X -.m+;+n+o+p+q+r+s+t+u+v+w+x+y+z+A+f.Q.B+C+[ j+O.D+O.. @ * ~ .       ",
"  . $ @ O.E+P., p k+1 n A.F+G+H+I.I+J+J.K+L+M+N+O+P+Q+R+S+T+U+V+W+X+t 1 Y+Z+H & ~ ) ~ & & 7 * * $ . ",
"  . ; ~ ~ h+m '._ _ @+A.`+V I+o. @p..@+@@@#@$@%@&@*@=@-@;@>@,@'@)@!@~@t ..: '.8 8 / ( & & ] * % @ * ",
". $ * ; 6 , g l {@]@^@/@(@d.f+K._@<.:@<@[@}@|@1@2@3@4@5@6@7@8@9@0@O @+,.u }+J 4 / a@> & & 7 & ~ & ) ",
"    @ = b@c@p k+r d@e@f@g@u.h@_@9.i@j@V+k@l@m@n@o@p@q@r@s@t@u@v@7.w@x@y@f.Z P _ a@~ 7 7 % 8 > 8 ~ i.",
". . @ / 1 8 ( B+J z@A@N k.p.}.B@C@D@&@E@F@p+G@H@I@J@K@L@2+M@N@w.(+O@>.>.M.d _ c 1 f * * * ~ 8 & & , ",
"      % P@; ~ Q@R@: s D O@S@1+u.J.V.T@U@i@V@W@X@Y@Z@`@ #6+.#V+0@+#@###M.o $#| / f %#, ~ ~ < ) 8 ) 8 ",
"@ . * , < < / e I J 5.0@X &#O@=.I.*#=#-#}@;#>#,#'#)#!#~#{#]#^#+#N /#(#o E A J _#m ^ _ / _ [ ^ ) < ~ ",
". 2 ! > m c '.:#5.y.D  .4 3 p.<#[#}#o.}#|#V.}@1#2#3#4#5#6#&.$.7#8#A+B.C y.E d [ : y.O t k+/ 8 ) ( = ",
"  . @ 2 < _ < F 7.d H _ z l y.9#0#_.a#J.U _.[.c.$.d.d.X %.E.E.b#c#d#e#I.B.f#d I F E J _ / ^ , ~ & = ",
"  . . ~ ) / / _ [ z / < e 5 Q.s L u.g#h#>.C -+g@W.}.#.B@u.i#:.}.j#X X C k#l#m#[ [ 4 d n#/ / %#! , 8 ",
"* @ ~ ! 8 ~ & > 8 $ ~ ( H t l+j#d.C o#' p#K L.x.q#(.j.p._.|.;+r#X f+B.K _#s#t#~@} ,.{@I H / ^ : I : ",
". . ( ( i.8 > > > , z / u#/ : +.X F v#w#d o p.x#B f.r n E C L /.E E y.y#c _ | | k+1 5 _#[ b@/ : _ { ",
". . @ < _ % 7 - % ~ * i.' ( '.5 : z#8 c :#A#M B#C#D#B ` } C#A#f.r >.` { <+) E#F#a@( _ ^ 8 = . - - * ",
".   @ % * % % = % 7 = 8 | ) G#O.* 2 = h+[ I #.>.d g M .._ a@a@> { d j.}+` H H#l.! ~ ~ & ! $ $ $ . @ ",
"          . . @ * ~ $ * = * . $ . $ % c i.p {@i.I#0#%+N.> J#O.E+6 Q@[ c k+I _ - % ; * K#*   2 $     ",
"                7 = $ .     . L#M#* ) / > 8 & * N#[ > O#P#- E+E+& , ~ ; > ; P.* * @ * Q#.           ",
"                . .   .       . % @ c M#& * . . $ ~ 7 R#S#, O.* - * * P.< $   @ . . * %             ",
"                                . . ^ T#* %   2 * $ * ; U#2 . $ * . . & V#W#X#. . . * -             ",
"                                    @ .   .         . . . $ $ * 7 . . $ Y#Z#`#@   . .         . .   ",
"                                                          $   $ * $ @ .   . . . .                   ",
"                                                                            . . . .                 ",
"                                          .    $.$                                                  ",
"                                              +$ $                                                  ",
"                                                                                                    ",
"                                                                                                    "};
