/* XPM */
static char * collectible_xpm[] = {
"50 50 225 2",
"  	c #000000",
". 	c #121212",
"+ 	c #171717",
"@ 	c #181818",
"# 	c #141414",
"$ 	c #101010",
"% 	c #0F0F0F",
"& 	c #0E0E0E",
"* 	c #111111",
"= 	c #131313",
"- 	c #0D0D0D",
"; 	c #040404",
"> 	c #161616",
", 	c #0C0C0C",
"' 	c #0B0B0B",
") 	c #050505",
"! 	c #212121",
"~ 	c #070707",
"{ 	c #090909",
"] 	c #202020",
"^ 	c #363636",
"/ 	c #373737",
"( 	c #393939",
"_ 	c #323232",
": 	c #2F2F2F",
"< 	c #2B2B2B",
"[ 	c #262626",
"} 	c #282828",
"| 	c #272727",
"1 	c #232323",
"2 	c #242424",
"3 	c #222222",
"4 	c #292929",
"5 	c #2D2D2D",
"6 	c #303030",
"7 	c #353535",
"8 	c #3B3B3B",
"9 	c #3A3A3A",
"0 	c #383838",
"a 	c #343434",
"b 	c #2C2C2C",
"c 	c #464646",
"d 	c #151515",
"e 	c #2E2E2E",
"f 	c #313131",
"g 	c #252525",
"h 	c #3F3F3F",
"i 	c #404040",
"j 	c #3C3C3C",
"k 	c #333333",
"l 	c #2A2A2A",
"m 	c #3D3D3D",
"n 	c #424242",
"o 	c #444444",
"p 	c #434343",
"q 	c #414141",
"r 	c #3E3E3E",
"s 	c #454545",
"t 	c #1C1C1C",
"u 	c #1D1D1D",
"v 	c #1D1C1C",
"w 	c #1E1E1E",
"x 	c #1E1D1D",
"y 	c #232222",
"z 	c #1B1B1B",
"A 	c #344917",
"B 	c #364B1C",
"C 	c #4F7316",
"D 	c #4F7315",
"E 	c #527716",
"F 	c #2F421A",
"G 	c #47651E",
"H 	c #425E1E",
"I 	c #46641D",
"J 	c #384C20",
"K 	c #1F1E1E",
"L 	c #384D21",
"M 	c #394D22",
"N 	c #628E1D",
"O 	c #53791D",
"P 	c #364622",
"Q 	c #4A6725",
"R 	c #4D6C26",
"S 	c #6A991F",
"T 	c #537620",
"U 	c #1A1919",
"V 	c #496820",
"W 	c #4D6E20",
"X 	c #587F1D",
"Y 	c #587F1E",
"Z 	c #486620",
"` 	c #5F8820",
" .	c #5C8323",
"..	c #597E28",
"+.	c #5D8425",
"@.	c #54781F",
"#.	c #1F1F1F",
"$.	c #4C6D1E",
"%.	c #5C851E",
"&.	c #618D1D",
"*.	c #5B8321",
"=.	c #577D23",
"-.	c #5A8026",
";.	c #597E25",
">.	c #4C6E19",
",.	c #191919",
"'.	c #47661B",
").	c #5E881C",
"!.	c #5C841F",
"~.	c #69991C",
"{.	c #6EA01C",
"].	c #5B8420",
"^.	c #4E6E22",
"/.	c #5D8721",
"(.	c #547725",
"_.	c #46651C",
":.	c #527719",
"<.	c #63901D",
"[.	c #6A931D",
"}.	c #72A51C",
"|.	c #72A71C",
"1.	c #5D8320",
"2.	c #67951E",
"3.	c #73A81B",
"4.	c #557924",
"5.	c #47651F",
"6.	c #5C791E",
"7.	c #715615",
"8.	c #7F7311",
"9.	c #798F1A",
"0.	c #7D5111",
"a.	c #7D540E",
"b.	c #65801C",
"c.	c #618C1F",
"d.	c #1A1A1A",
"e.	c #47651D",
"f.	c #496724",
"g.	c #7C5A11",
"h.	c #7D4E11",
"i.	c #7A5414",
"j.	c #84450C",
"k.	c #814F0C",
"l.	c #5E881D",
"m.	c #608B1D",
"n.	c #53781C",
"o.	c #5C8226",
"p.	c #83470C",
"q.	c #8A1602",
"r.	c #863A07",
"s.	c #853C08",
"t.	c #7C460E",
"u.	c #657E1B",
"v.	c #527620",
"w.	c #0A0A0A",
"x.	c #45641B",
"y.	c #585F22",
"z.	c #734918",
"A.	c #7F4D0F",
"B.	c #80410C",
"C.	c #6E5016",
"D.	c #5C641C",
"E.	c #647E1B",
"F.	c #171616",
"G.	c #45641A",
"H.	c #587D24",
"I.	c #785E17",
"J.	c #814C0D",
"K.	c #7E6212",
"L.	c #80620E",
"M.	c #893704",
"N.	c #708218",
"O.	c #32451E",
"P.	c #191818",
"Q.	c #547B1A",
"R.	c #5D8621",
"S.	c #618B22",
"T.	c #5B8223",
"U.	c #64501D",
"V.	c #658B1F",
"W.	c #5F821E",
"X.	c #567C1F",
"Y.	c #72A61A",
"Z.	c #33451F",
"`.	c #547921",
" +	c #557923",
".+	c #5E8722",
"++	c #4E5524",
"@+	c #5D8121",
"#+	c #4F7022",
"$+	c #435D24",
"%+	c #5D8620",
"&+	c #52781B",
"*+	c #486622",
"=+	c #384927",
"-+	c #5F8922",
";+	c #4F7023",
">+	c #5E8721",
",+	c #58801B",
"'+	c #4B6827",
")+	c #5E8725",
"!+	c #4E6E23",
"~+	c #577D1F",
"{+	c #59821B",
"]+	c #577B28",
"^+	c #5E8528",
"/+	c #5F8923",
"(+	c #59801E",
"_+	c #58801A",
":+	c #5A8121",
"<+	c #517029",
"[+	c #618A26",
"}+	c #537526",
"|+	c #577C22",
"1+	c #59811F",
"2+	c #46641C",
"3+	c #59821A",
"4+	c #577E1D",
"5+	c #567C1E",
"6+	c #5E881F",
"7+	c #5C861D",
"8+	c #5C851D",
"9+	c #415C1D",
"0+	c #060606",
"a+	c #030303",
"b+	c #010101",
"  . + @   @ # $ % & % * . = * % - - - - & & &     ; # >   + , '   &     ) ! & ~ ~ { * . ]           ",
", ] ^ / ( _ : : < [ [ } | } } [ 1 1 1 ! 1 2 3 } 4 5 6 7 8 ( [ 2 8 9 0 7 6 a 4 ! 3 [ 5 _ b : c c c d ",
"  _ 6 6 e 5 e 6 f : 5 f : < | | [ [ | [ g [ [ [ | 4 } 5 / h h i i j / k 6 _ k 5 l < e k 0 m n o c * ",
"  e 5 l | | | l b b e 7 7 5 l } | [ g g g g g [ [ [ [ 4 : 0 i o p q j a 5 < b b < < < < 6 k 0 h p   ",
"  4 4 } | [ [ [ | [ l 5 : e e 5 l | [ g [ g g } 4 } | } 4 6 0 h n p q 9 6 4 | l < 5 5 b 5 5 6 / 0   ",
"  | l | } } [ g g [ [ [ } [ 4 b l } | } } g g | < < 4 } | < f / r n p h 0 5 | l < 5 e e e : f ^ r   ",
"  1 | | [ l 4 | g 2 2 g g g g 2 g [ [ } l [ g g 4 b l | g } 4 : / r n n h ( : b < 5 e 6 : ^ j h i   ",
"* 1 g 2 [ | } | [ g 2 g g g g [ g g g g 2 2 g 2 } 4 l } [ } 4 5 _ 9 i i h h 9 a e 5 6 k a ( n o p * ",
"- [ [ g g [ g g [ g g g g 2 g | g g g 2 1 2 [ | 4 b : e < b 6 a a / j r 8 8 m h ( a k / 9 8 i o s t ",
"& } g g g g 2 2 g [ [ [ [ g g [ [ g g 2 2 2 [ } < 6 ^ ( a 6 k ( j ( ( 9 9 9 m i i r j j i q q s c t ",
", [ g [ g g g 2 2 g [ } | g 2 | [ g g g g 2 g [ l : ^ m 8 7 f a 0 ( ( ( 8 j r h i n p o s s c c c u ",
", g g [ g g g [ g 2 g } } g 2 [ g 1 2 g g g g g | < k 9 m j a e _ / 8 0 ^ 0 r i i i q s c c c c c u ",
", g [ [ [ [ g | [ 2 2 2 1 2 1 g 2 1 2 2 g g g g [ 4 e k 0 j 9 _ 6 a ( 0 a k 9 r r r h q o s c c c . ",
", g g [ [ g g g [ g g 1 3 1 1 2 g g 2 g g g g g | 4 4 b f 0 j 8 ^ 7 / 0 7 f f 0 8 m m m q p o c c ! ",
", 2 g g g | [ g g g 2 3 3 1 1 1 2 g g g g [ g g l e : 5 < _ ( j j j 9 ( / a 6 f k / 8 h q p o s c . ",
"' [ | [ g } | g g [ g 2 1 3 1 1 g g g 1 2 2 2 | } 6 / a 4 4 _ 0 j m 9 0 / / 7 f 5 6 ^ 8 h n p o s   ",
"' [ 4 } g [ [ g g | [ g 1 1 1 2 2 g g v u w t t x y | | 3 w ! f / ( 7 a a a k k k f k ^ 9 h q n p   ",
"' | 4 4 } | [ [ [ [ | | g g 2 g g [ g z A B C D E F G H I J K < : k f : f _ 6 _ a / 8 8 0 j i i i   ",
", | } 4 l 4 } 4 | [ [ [ [ g g g g [ g @ L M N N O P Q R S T ] } l : 5 < 5 6 6 f 7 m n q h i q h r   ",
", [ } [ } 4 } 4 } | g 2 [ [ g 2 1 2 1 U V W X Y Z `  ...+.@.#.} < f b | 4 l e ^ 8 i s s s o o q ( @ ",
"~ } } | } } | 4 } [ [ g g g g g 2 2 1 @ $.%.%.&.&.*.=.-.;.>.#.} l e 5 } } < e 7 8 i o o s o p n 9 ,.",
"  } } } 4 l 4 } [ g g g [ [ [ [ g g 1 > '.).!.~.{.].^./.(._.w 4 } 4 4 4 4 < 5 f ^ j i n o p p p 8 ,.",
"  [ [ [ } 4 4 < } | [ [ | [ | | g g 1 > :.<.[.}.|.1.2.3.4.5.! < } } } } 4 l < 5 _ 0 r q n n n o m z ",
"  g [ [ [ [ | 4 | | } | } } < b [ g 1 @ G 6.7.8.9.0.a.b.c.5.w } } | [ } } 4 l l e 7 j i q q q p r t ",
"  g [ | | } | [ [ g [ [ [ } l b } g 2 d.e.f.g.h.i.j.k.l.m.G z 1 [ [ | } | } } } < _ 9 h q i i q n   ",
", g [ } } 4 4 | [ g g g g | } 4 4 [ [ + n.o.p.q.r.s.t.u.v.e.z [ g [ | 4 } [ [ [ [ < 7 m r m m i n   ",
"w.! | 4 l l } | [ } } | g g g g } } 4 @ x.*.y.z.A.B.C.D.E._.t 1 g g g g g g [ [ | } : ^ ^ a 7 9 r w ",
"- 2 } } l < } | | } 4 4 | g g 1 g | } F.G.*.H.I.J.K.L.M.N.O.P.[ g 2 1 1 1 2 g g [ } 4 5 5 b e a 9 > ",
"  e l } } 4 | [ | | } < } | [ } [ [ 2 + Q.R.S.T.U.V.W.X.Y.Z.,.| [ g 1 3 2 2 g g | } < b < 4 < : ^   ",
"  b 4 } [ [ [ g [ [ 4 : < 4 } < 4 } 1 w `. +.+.+++@+#+$+%+&+d.| [ g 2 1 g g 2 g g } b e 6 e 5 : ^   ",
"  } | } 4 | | [ [ 2 [ l l g | } } } 1 v *+Q =+-+;+*.*+^.>+,+t [ g g 2 g g 2 2 g g [ 4 5 _ ^ / ( 9   ",
"  [ | [ } | | } } g g [ g g g [ | [ 3 d.n. +'+)+!+` ~+~+X.{+t g g g g g g 1 2 [ [ g [ 4 e 7 0 0 8   ",
"  | l < 4 [ | } | g g [ [ | [ [ | [ g v e.Q ]+^++./+!+`.(+&+z [ [ [ [ g g 2 g g g [ g g } 5 e 6 a   ",
", 3 5 e < } [ | | g 2 g | | | | | | g w _+:+<+[+-.}+/+|+1+_.t g | | | g g g g g g [ g g [ | [ l b   ",
", ! } l 4 [ g [ | } | [ [ | g | | | | u 2+3+4+` 5+).6+7+8+9+#.[ [ [ [ g g g g g g [ g [ [ [ | 4 4   ",
", ! g | } [ [ g g | } | [ | | | 4 l < w w ! ! ! 3 3 #.#.] #.3 [ g g g g g g g g g [ [ | [ [ } < b   ",
"- ! g l < l | [ g [ | g g } | [ } l b | g [ } 4 4 [ [ | 4 } | | | [ [ g [ [ g g [ 4 4 4 } | [ < :   ",
", 1 l 6 : l [ [ [ } | | | } | g [ [ [ g [ g } l l [ [ } < 4 | | } } | | } | [ g [ 4 < b 4 4 } < 6   ",
", 3 l _ k l | | [ [ [ | [ < l [ g 2 2 | } | 4 l 4 [ [ 4 b 5 < } | | | | 4 } [ g [ | l < 4 4 l l 6   ",
", 1 4 l } } [ | [ g g [ [ [ | [ 2 g g } } } } 4 } [ } } < e 6 5 4 } } | } | g 2 g | 4 l < l < 4 6   ",
"  } 4 < 4 } 4 } | | [ g [ [ [ g 2 2 2 | | } } l < l < l l 5 f _ e b } | [ g g g [ | } b b 5 e f 7 - ",
", 2 4 l l b < 4 4 < 4 [ g [ g | [ g g [ [ [ 4 : _ 5 < l l b f 7 k 6 < | [ g [ [ | } 5 f k 7 a a / > ",
"- 2 } 4 l : e } | < < | | | } b 5 } [ | [ [ b _ 7 _ 5 l b 5 k ^ 7 k 6 5 < } } g 4 < k ( m m ( a a d ",
"w.1 } } } 4 l [ g [ [ [ 4 4 b f k : l < b b 5 k k _ e b b : _ a 7 a k 7 7 6 e : k 0 r i n q 8 / k # ",
"0+3 } } } } 4 [ [ | | | < 5 _ 0 ( a : : k ^ ^ ^ 7 6 l l < < e _ / ( ^ ^ ( a _ a 8 q q p n i m 9 / [ ",
"  [ [ | } 4 4 } } } 4 | 4 5 k / / k f k ^ 0 / / 7 5 } < e f a / 8 j 0 7 _ k / j i h r h h i h 8 0 # ",
"w.5 [ l b e < } l b e b 4 b < e 6 : f k 7 / / 0 0 f 5 e _ ^ 9 m m 9 ^ a k 7 m p p r ( 0 9 j j 9 / * ",
"# a 6 e _ 7 _ e : e f _ _ 6 e b b _ a 7 7 ( j m h m ( k : a 8 r m ( ^ k k ^ j p o h ( / 7 ^ / 0 / z ",
"z / _ 6 : _ a _ 4 @ 1 5 e 5 b < 6 a 7 _ : k h n p o n 0 a _ ^ ( ^ e 5 l b 6 ^ 9 m n r 9 k 6 a ^ / # ",
"          $ $ $ a+b+a+% * * . = > @ @ d d >               > @ ,.+ = * $ . d @ d.d.    0+% # w.w.& 0+"};
